# xmcd
#
# Track frame offsets:
#	150
#	24812
#	42055
#	55875
#	83325
#	83987
#	117300
#	141325
#
# Disc length: 2317 seconds
#
# Revision: 3
# Processed by: cddbd v1.5.2PL0 Copyright (c) Steve Scherf et al.
# Submitted via: audiograbber 1.83.01
#
DISCID=58090b08
DTITLE=Siegel-Schwall Band - Live - Last Summer
DYEAR=1974
DGENRE=Blues
TTITLE0=Rock Me Baby
TTITLE1=You Don´t Love Me Like That
TTITLE2=I Won´t Hold My Breath
TTITLE3=Sun Is Shining
TTITLE4=Let´s Boogie
TTITLE5=Hey, Billie Jean 
TTITLE6=West Coast Blues
TTITLE7=Out-A-Gas? 
EXTD=
EXTT0=
EXTT1=
EXTT2=
EXTT3=
EXTT4=
EXTT5=
EXTT6=
EXTT7=
PLAYORDER=
